<?xml version="1.0" standalone="no"?>
<svg class="icon" viewBox="0 0 1228 1024" version="1.1" xmlns="http://www.w3.org/2000/svg" width="239.84375" height="200">
  <path d="M1196.987733 212.5824v540.0576c0 39.594667-34.474667 71.3728-76.765866 71.3728H323.242667c-51.780267 0-88.746667-46.762667-73.250134-92.808533l126.737067-375.808H70.417067C31.675733 355.362133 0 326.4512 0 291.089067V98.372267C0 63.044267 31.675733 34.0992 70.417067 34.0992h378.811733c26.7264 0 51.029333 13.9264 63.010133 35.703467l39.048534 71.406933H1120.256c42.257067 0 76.8 32.119467 76.8 71.3728" fill="#155d70" />
  <path d="M1128.721067 997.853867H68.266667a68.266667 68.266667 0 0 1-68.266667-68.266667V280.3712a68.266667 68.266667 0 0 1 68.266667-68.266667h1060.4544a68.266667 68.266667 0 0 1 68.266666 68.266667V929.5872a68.266667 68.266667 0 0 1-68.266666 68.266667" fill="#24839b" />
  <path d="M438.613333 450.901333c0-24.576 19.797333-44.373333 44.373334-44.373333h103.253333c28.330667 0 55.637333 9.557333 77.141333 27.306667 21.504-17.749333 48.810667-27.306667 77.141334-27.306667h103.253333c24.576 0 44.373333 19.797333 44.373333 44.373333v258.048c0 24.576-19.797333 44.373333-44.373333 44.373334h-104.96c-20.48 0-40.618667 5.802667-58.026667 16.725333l-17.408 10.922667-17.408-10.922667a109.568 109.568 0 0 0-58.026666-16.725333H482.986667c-24.576 0-44.373333-19.797333-44.373334-44.373334V450.901333zM500.053333 468.309333v222.037334h87.893334c15.701333 0 31.061333 2.730667 45.738666 7.850666V489.813333a70.314667 70.314667 0 0 0-47.445333-21.504H500.053333z m193.024 21.504v208.384a139.776 139.776 0 0 1 45.738667-7.850666h87.893333V468.309333h-86.186666a70.314667 70.314667 0 0 0-47.445334 21.504z" fill="#FFFFFF" />
  <path d="M531.114667 529.408h70.997333c9.557333 0 17.066667 7.509333 17.066667 17.066667s-7.509333 17.066667-17.066667 17.066666H531.114667c-9.557333 0-17.066667-7.509333-17.066667-17.066666s7.509333-17.066667 17.066667-17.066667zM531.114667 600.064h70.997333c9.557333 0 17.066667 7.509333 17.066667 17.066667s-7.509333 17.066667-17.066667 17.066666H531.114667c-9.557333 0-17.066667-7.509333-17.066667-17.066666s7.509333-17.066667 17.066667-17.066667zM724.650667 529.408h70.997333c9.557333 0 17.066667 7.509333 17.066667 17.066667s-7.509333 17.066667-17.066667 17.066666H724.650667c-9.557333 0-17.066667-7.509333-17.066667-17.066666s7.509333-17.066667 17.066667-17.066667zM724.650667 600.064h70.997333c9.557333 0 17.066667 7.509333 17.066667 17.066667s-7.509333 17.066667-17.066667 17.066666H724.650667c-9.557333 0-17.066667-7.509333-17.066667-17.066666s7.509333-17.066667 17.066667-17.066667z" fill="#FFFFFF" />
</svg>
